<svg id="Capa_1" data-name="Capa 1" xmlns="http://www.w3.org/2000/svg" viewBox="0 0 1680.18 458.62"><defs><style>.cls-1{fill:#a5007e;}.cls-2{fill:#211915;}.cls-3{fill:#3e3432;}.cls-4{fill:#baaaa9;}.cls-5{fill:#fff;}</style></defs><title>LucreciaCohen-Isologotipo-Horizontal-Svg</title><path class="cls-1" d="M505.81,183.77a6.11,6.11,0,0,0-3.81,3.7q-1,2.68-1,8.61v80a24.75,24.75,0,0,0,.79,7.35,4.8,4.8,0,0,0,3,3.07,21.53,21.53,0,0,0,6.91.81h8.28A24.53,24.53,0,0,0,534,282.94a34.88,34.88,0,0,0,10.76-12.35,57,57,0,0,0,6-18.43h3.89q-.5,5.39-.5,13.85a219.46,219.46,0,0,0,1.16,24.93q-11.51-.46-38.82-.46-36.93,0-55.22.46v-3.16a27.3,27.3,0,0,0,8.2-1.23,5.87,5.87,0,0,0,3.52-3.69,28.33,28.33,0,0,0,1-8.62V196.08a28.21,28.21,0,0,0-1-8.61,5.88,5.88,0,0,0-3.52-3.7,28,28,0,0,0-8.2-1.23v-3.15q8.54.47,26.74.46,17.22,0,26.66-.46v3.15A32.63,32.63,0,0,0,505.81,183.77Z"/><path class="cls-1" d="M650,284.36q2.44,3.27,8.4,3.27v3.31q-5.29-.46-10.51-.46-14.91,0-24.75,2.23V278.47q-7.7,14.7-27.32,14.7-12.66,0-18.46-6.16a16.72,16.72,0,0,1-4-7.77,54.49,54.49,0,0,1-1.2-12.69V226.62q0-7.23-2.45-10.54c-1.63-2.2-4.42-3.3-8.4-3.3v-3.31q5.38.47,10.51.46a120,120,0,0,0,24.76-2.15V273q0,6.54,2.11,9.89c1.4,2.23,4.07,3.34,8,3.34a14.89,14.89,0,0,0,8.24-2.42,17.4,17.4,0,0,0,6-6.62,19.37,19.37,0,0,0,2.24-9.27V226.62q0-7.23-2.44-10.54t-8.41-3.3v-3.31c3.59.31,7.09.46,10.52.46a119.86,119.86,0,0,0,24.75-2.15v66Q647.57,281.08,650,284.36Z"/><path class="cls-1" d="M734.65,280.36a32.78,32.78,0,0,1-11.17,9.23,34.29,34.29,0,0,1-16.06,3.58,43.28,43.28,0,0,1-20.24-4.62A33.32,33.32,0,0,1,673.1,274.4q-5.18-9.54-5.17-23.77,0-13.94,5.42-23.66a35.8,35.8,0,0,1,14.9-14.69,46.14,46.14,0,0,1,21.73-5,53.33,53.33,0,0,1,11.84,1.27,34.7,34.7,0,0,1,9.35,3.43,19.48,19.48,0,0,1,6.83,6.34,15.29,15.29,0,0,1,2.45,8.43,11.86,11.86,0,0,1-3.77,9.11,13.58,13.58,0,0,1-9.64,3.5q-6,0-9.48-3.15a10.78,10.78,0,0,1-3.52-8.46,11.65,11.65,0,0,1,3.23-8.23,16.22,16.22,0,0,1,7.94-4.7,9.15,9.15,0,0,0-4.09-2.73,17.3,17.3,0,0,0-6.09-1,16,16,0,0,0-11.71,4.81q-4.85,4.81-7.33,13.23a68.46,68.46,0,0,0-2.48,19.27q0,11.55,3.15,18.62t8.19,10.08a21.48,21.48,0,0,0,11.18,3,26.94,26.94,0,0,0,11.67-2.81q5.88-2.8,10.59-10l2.82.92A41.76,41.76,0,0,1,734.65,280.36Z"/><path class="cls-1" d="M794.54,211.51a23.7,23.7,0,0,1,13.79-4.2,16.52,16.52,0,0,1,8.6,2.08,13.18,13.18,0,0,1,5.14,5.35,15.39,15.39,0,0,1,1.65,7,13,13,0,0,1-3.64,9.54,12.89,12.89,0,0,1-9.6,3.69c-3.87,0-6.91-.91-9.15-2.73a9,9,0,0,1-3.35-7.35q0-7.53,7.45-12.31a10.17,10.17,0,0,0-2.07-.23,10.54,10.54,0,0,0-2.65.39,14.78,14.78,0,0,0-7.86,3.8,22.73,22.73,0,0,0-5.59,7.66,20.94,20.94,0,0,0-2,8.69V274.7q0,7.32,3.81,10.12t12.17,2.81v3.31q-21.19-.62-27-.62-5.38,0-24.25.62v-3.31a16.71,16.71,0,0,0,6.41-1,6.27,6.27,0,0,0,3.4-3.46,18.41,18.41,0,0,0,1-6.85v-49.7q0-7.31-2.4-10.57c-1.6-2.18-4.42-3.27-8.44-3.27v-3.31c3.58.31,7.09.46,10.51.46q15,0,24.75-2.15v14.61A27.5,27.5,0,0,1,794.54,211.51Z"/><path class="cls-1" d="M854.52,249.63q0,10.46,3.14,17.34t8.16,10.08a19.55,19.55,0,0,0,10.72,3.19q14,0,22.43-12.61l3,.92a38.53,38.53,0,0,1-6.66,12,34.24,34.24,0,0,1-27.2,12.58,43.54,43.54,0,0,1-20.49-4.62,32.27,32.27,0,0,1-13.74-14q-4.92-9.42-4.92-23.42,0-14.31,5.3-24.12a34.87,34.87,0,0,1,14.65-14.73,45.69,45.69,0,0,1,21.6-4.93q31.88,0,31.87,34.93h-47.6Q854.52,244.55,854.52,249.63Zm23.8-30.85q-2.94-8.16-8.9-8.16t-10.06,7q-4,7-4.93,21.66H881Q881.25,226.93,878.32,218.78Z"/><path class="cls-1" d="M980.92,280.36a32.78,32.78,0,0,1-11.17,9.23,34.29,34.29,0,0,1-16.06,3.58,43.28,43.28,0,0,1-20.24-4.62,33.32,33.32,0,0,1-14.08-14.15q-5.18-9.54-5.17-23.77,0-13.94,5.42-23.66a35.8,35.8,0,0,1,14.9-14.69,46.14,46.14,0,0,1,21.73-5,53.33,53.33,0,0,1,11.84,1.27,34.7,34.7,0,0,1,9.35,3.43,19.56,19.56,0,0,1,6.83,6.34,15.28,15.28,0,0,1,2.44,8.43,11.86,11.86,0,0,1-3.76,9.11,13.59,13.59,0,0,1-9.65,3.5q-6,0-9.47-3.15a10.78,10.78,0,0,1-3.52-8.46,11.61,11.61,0,0,1,3.23-8.23,16.22,16.22,0,0,1,7.94-4.7,9.15,9.15,0,0,0-4.09-2.73,17.3,17.3,0,0,0-6.09-1,16,16,0,0,0-11.71,4.81q-4.85,4.81-7.33,13.23a68.46,68.46,0,0,0-2.48,19.27q0,11.55,3.14,18.62t8.2,10.08a21.47,21.47,0,0,0,11.17,3A27,27,0,0,0,974,277.28q5.87-2.8,10.59-10l2.82.92A41.76,41.76,0,0,1,980.92,280.36Z"/><path class="cls-1" d="M1032.57,283.17a6.4,6.4,0,0,0,3.4,3.46,16.38,16.38,0,0,0,6.37,1v3.31q-16.89-.62-22.51-.62-5.39,0-23.6.62v-3.31a16.73,16.73,0,0,0,6.42-1,6.23,6.23,0,0,0,3.39-3.46,18.18,18.18,0,0,0,1-6.85v-49.7q0-7.31-2.4-10.57t-8.45-3.27v-3.31q5.38.47,10.52.46,15,0,24.75-2.15v68.54A17.72,17.72,0,0,0,1032.57,283.17Zm-3.1-111.09a11.53,11.53,0,0,1,0,17.77q-4.18,3.22-11.22,3.23-7.2,0-11.34-3.23a11.6,11.6,0,0,1,0-17.77q4.14-3.22,11.34-3.23Q1025.29,168.85,1029.47,172.08Z"/><path class="cls-1" d="M1093.21,214.16q-3.35-3.76-10.47-3.77a23.61,23.61,0,0,0-6.62,1,13.93,13.93,0,0,0-5.47,2.89,15.29,15.29,0,0,1,7.37,4.58,11.6,11.6,0,0,1,2.65,7.8,10.34,10.34,0,0,1-1.7,5.81,11.57,11.57,0,0,1-4.84,4.08,16.55,16.55,0,0,1-7.2,1.5,11.43,11.43,0,0,1-8.73-3.46,12.13,12.13,0,0,1-3.27-8.7q0-8.15,9.43-13.23,10.35-5.31,25.83-5.31,17.38,0,24.75,7.08a16.53,16.53,0,0,1,4.8,8.23,59.21,59.21,0,0,1,1.24,13.77v42.85a13.31,13.31,0,0,0,.79,5.43,2.83,2.83,0,0,0,2.77,1.57c1.82,0,3.92-.89,6.29-2.69l1.74,2.69a26.2,26.2,0,0,1-8.44,4.39A38,38,0,0,1,1113.2,292q-8.61,0-12.41-3.54a12,12,0,0,1-3.81-9.23,26.1,26.1,0,0,1-10.85,9.58,32.85,32.85,0,0,1-14.32,3.19q-9.68,0-15.52-4.73t-5.83-13.19a17.8,17.8,0,0,1,5.79-13.62q5.79-5.39,18-9.54c.89-.3,3.76-1.32,8.61-3s8.36-3.47,10.51-5.26,3.23-3.77,3.23-5.93V224.47Q1096.56,217.93,1093.21,214.16Zm-.16,32.5a76.91,76.91,0,0,1-7,4.43,29.88,29.88,0,0,0-8.44,7.81,18.22,18.22,0,0,0-3.07,10.8q0,6.17,2.9,9.2a10.06,10.06,0,0,0,7.62,3q6.7,0,11.5-6.47V243.16A13.77,13.77,0,0,1,1093.05,246.66Z"/><path class="cls-1" d="M1276.82,283.82c-.64-1.46-1.56-2.19-2.78-2.19a7.21,7.21,0,0,0-3.47,1.31,99.81,99.81,0,0,1-9.23,5.38,45.8,45.8,0,0,1-9.77,3.5,52.11,52.11,0,0,1-12.38,1.35q-18,0-31.5-6.77a48.76,48.76,0,0,1-20.94-19.66q-7.41-12.89-7.41-30.65,0-17.39,7.62-30.78a53.08,53.08,0,0,1,21.27-20.77q13.66-7.38,31.13-7.38a49.31,49.31,0,0,1,17.26,2.69,61.31,61.31,0,0,1,14,7.54,5.94,5.94,0,0,0,3.31,1.38q3.46,0,4.3-9.38h3.89q-.66,10.7-.66,38.16h-3.89a116.81,116.81,0,0,0-2.36-12.89,29.54,29.54,0,0,0-3.73-8.73,27.29,27.29,0,0,0-6.66-6.93,28.94,28.94,0,0,0-9.85-5.73,35.39,35.39,0,0,0-11.67-2q-11.67,0-19.21,7.46t-11,19.7a98.82,98.82,0,0,0-3.47,27,94.25,94.25,0,0,0,3.64,27q3.65,12.24,11.38,19.58t19.33,7.35a34.26,34.26,0,0,0,11.51-2,26,26,0,0,0,9.52-5.77,24.13,24.13,0,0,0,6.74-7.12,31.5,31.5,0,0,0,3.65-9.34,135.92,135.92,0,0,0,2.19-13.93h3.89q0,28.54.66,39.7h-3.89A24.81,24.81,0,0,0,1276.82,283.82Z"/><path class="cls-1" d="M1369.86,217.62q11.06,10.32,11.05,32.7t-11.05,32.58q-11.05,10.26-30.42,10.27T1309,282.9q-11.1-10.27-11.1-32.58t11.1-32.66q11.08-10.35,30.46-10.35T1369.86,217.62Zm-42,2.62q-4.35,9.84-4.35,30.08t4.35,29.92q4.35,9.78,11.63,9.77t11.63-9.73q4.26-9.73,4.26-30t-4.26-30.12q-4.26-9.81-11.63-9.81T1327.81,220.24Z"/><path class="cls-1" d="M1451.85,207.31q13.17,0,18.63,6.08a19.06,19.06,0,0,1,4.14,7.85,49.19,49.19,0,0,1,1.32,12.69v42.39a18.18,18.18,0,0,0,1,6.85,6.22,6.22,0,0,0,3.35,3.46,16.68,16.68,0,0,0,6.46,1v3.31q-17.88-.62-22.44-.62-5.79,0-22,.62v-3.31a12,12,0,0,0,5.38-1,6,6,0,0,0,2.9-3.46,20.39,20.39,0,0,0,.91-6.85v-49q0-6.47-2.27-9.77t-8.24-3.31a16.05,16.05,0,0,0-8.49,2.34,16.84,16.84,0,0,0-6.08,6.47,19.08,19.08,0,0,0-2.23,9.27v44a21.39,21.39,0,0,0,.86,6.85,5.88,5.88,0,0,0,2.82,3.46,12,12,0,0,0,5.42,1v3.31q-16.23-.62-20.94-.62-5.88,0-23.43.62v-3.31a16.38,16.38,0,0,0,6.37-1,6.4,6.4,0,0,0,3.4-3.46,17.72,17.72,0,0,0,1.07-6.85v-89.7q0-7.31-2.44-10.58t-8.4-3.27v-3.31q5.38.47,10.51.47,14.91,0,24.76-2.23v54.23Q1431.82,207.32,1451.85,207.31Z"/><path class="cls-1" d="M1520.64,249.63q0,10.46,3.15,17.34t8.15,10.08a19.57,19.57,0,0,0,10.72,3.19q14,0,22.44-12.61l3,.92a38.36,38.36,0,0,1-6.67,12,34.2,34.2,0,0,1-27.19,12.58,43.54,43.54,0,0,1-20.49-4.62,32.16,32.16,0,0,1-13.74-14q-4.92-9.42-4.93-23.42,0-14.31,5.3-24.12A34.93,34.93,0,0,1,1515,212.24a45.76,45.76,0,0,1,21.61-4.93q31.88,0,31.87,34.93h-47.6C1520.73,243.78,1520.64,246.24,1520.64,249.63Zm23.8-30.85q-2.94-8.16-8.9-8.16t-10,7q-4,7-4.93,21.66h26.57Q1547.38,226.93,1544.44,218.78Z"/><path class="cls-1" d="M1640.34,207.31a35.4,35.4,0,0,1,11.38,1.54,17.79,17.79,0,0,1,7.25,4.54,17.57,17.57,0,0,1,4,7.77,52.5,52.5,0,0,1,1.24,12.77v42.39a17.51,17.51,0,0,0,1.08,6.85,6.42,6.42,0,0,0,3.39,3.46,16.44,16.44,0,0,0,6.38,1v3.31q-16.89-.62-22.35-.62-5.22,0-22.1.62v-3.31a12.29,12.29,0,0,0,5.46-1,5.86,5.86,0,0,0,2.86-3.46,21.68,21.68,0,0,0,.86-6.85v-49q0-6.47-2.27-9.77c-1.52-2.21-4.26-3.31-8.24-3.31a15.76,15.76,0,0,0-8.48,2.38,17,17,0,0,0-6.09,6.58,19.42,19.42,0,0,0-2.23,9.27v43.85a20.39,20.39,0,0,0,.91,6.85,6,6,0,0,0,2.89,3.46,12.08,12.08,0,0,0,5.39,1v3.31q-15.57-.62-21-.62-5.22,0-23.43.62v-3.31a16.73,16.73,0,0,0,6.42-1,6.23,6.23,0,0,0,3.39-3.46,18.18,18.18,0,0,0,1-6.85v-49.7q0-7.31-2.4-10.57t-8.45-3.27v-3.31c3.59.31,7.09.46,10.52.46q15,0,24.75-2.15v14.15Q1620.23,207.32,1640.34,207.31Z"/><path class="cls-2" d="M495.32,367.48A30.32,30.32,0,0,1,474.76,360l3.52-3.88a30,30,0,0,0,8,5,24.55,24.55,0,0,0,9.28,1.64,13.54,13.54,0,0,0,8.16-2.24,6.8,6.8,0,0,0,3.05-5.72v-.13a7.2,7.2,0,0,0-.57-2.91,6.16,6.16,0,0,0-2-2.37,14.75,14.75,0,0,0-4-1.94,57.59,57.59,0,0,0-6.52-1.67,55.21,55.21,0,0,1-7.54-2,19.25,19.25,0,0,1-5.29-2.74,10.15,10.15,0,0,1-3.1-3.74,11.7,11.7,0,0,1-1-5v-.14a10.88,10.88,0,0,1,1.22-5.08,12.29,12.29,0,0,1,3.45-4,17.08,17.08,0,0,1,5.25-2.67,21.44,21.44,0,0,1,6.62-1,27.42,27.42,0,0,1,17.68,5.75l-3.3,4.07a25.08,25.08,0,0,0-7.08-3.87,23,23,0,0,0-7.45-1.21,12.75,12.75,0,0,0-7.83,2.17,6.53,6.53,0,0,0-2.88,5.38v.14a7.19,7.19,0,0,0,.58,3,6.09,6.09,0,0,0,2.08,2.41,15.91,15.91,0,0,0,4.17,2,53.93,53.93,0,0,0,6.83,1.71q8.41,1.73,12.4,4.81a10,10,0,0,1,4,8.42v.13a11.61,11.61,0,0,1-1.27,5.45,12.81,12.81,0,0,1-3.53,4.17,16.11,16.11,0,0,1-5.41,2.67A24,24,0,0,1,495.32,367.48Z"/><path class="cls-2" d="M526.38,351.64a13.13,13.13,0,0,0,1.44,4.88,11.84,11.84,0,0,0,2.95,3.61,13,13,0,0,0,4,2.24,14.25,14.25,0,0,0,4.67.77,15.16,15.16,0,0,0,6.65-1.34,19.47,19.47,0,0,0,5.07-3.54l3.45,2.87a22.51,22.51,0,0,1-6.4,4.71,20.09,20.09,0,0,1-8.91,1.77,19.77,19.77,0,0,1-7.19-1.3,17.87,17.87,0,0,1-5.9-3.67,17.42,17.42,0,0,1-4-5.72,18,18,0,0,1-1.47-7.35,18.69,18.69,0,0,1,1.33-7.05,17.22,17.22,0,0,1,9.34-9.59,18.07,18.07,0,0,1,7.16-1.4,17.86,17.86,0,0,1,7.33,1.44,16,16,0,0,1,5.47,3.91,16.71,16.71,0,0,1,3.38,5.81,22,22,0,0,1,1.15,7.15v.77a8.56,8.56,0,0,1-.08,1Zm24-4.21a15.49,15.49,0,0,0-1.08-4.41,12.34,12.34,0,0,0-2.34-3.69,10.7,10.7,0,0,0-3.59-2.53,12,12,0,0,0-4.86-.93,11.43,11.43,0,0,0-4.45.87,11.12,11.12,0,0,0-3.67,2.42,13.42,13.42,0,0,0-2.63,3.69,14.43,14.43,0,0,0-1.33,4.58Z"/><path class="cls-2" d="M565.64,332.27h5.54v9a18.15,18.15,0,0,1,2.52-4,16.16,16.16,0,0,1,3.45-3.1,14.8,14.8,0,0,1,4.24-2,16.23,16.23,0,0,1,5-.61v5.55h-.43a16.27,16.27,0,0,0-5.72,1,13.06,13.06,0,0,0-4.71,3,14.21,14.21,0,0,0-3.16,5,18.8,18.8,0,0,0-1.15,6.85v13.76h-5.54Z"/><path class="cls-2" d="M591.1,332.27h6.11l12.51,28.66,12.58-28.66h6l-16.18,34.81H607.2Z"/><path class="cls-2" d="M637.11,319h6.33v5.68h-6.33Zm.36,13.24H643v34.54h-5.54Z"/><path class="cls-2" d="M672.63,367.61a19.83,19.83,0,0,1-7.58-1.43,19.16,19.16,0,0,1-6-3.88,17.32,17.32,0,0,1-4-5.71,16.91,16.91,0,0,1-1.44-6.88v-.14a17.1,17.1,0,0,1,1.44-6.95,17.65,17.65,0,0,1,4-5.74,18.89,18.89,0,0,1,6-3.91,19.64,19.64,0,0,1,7.58-1.44,22.9,22.9,0,0,1,4.82.47,18.31,18.31,0,0,1,3.95,1.3,18.67,18.67,0,0,1,3.31,2,28.67,28.67,0,0,1,2.81,2.41l-3.67,3.61a26.05,26.05,0,0,0-4.85-3.68,12.61,12.61,0,0,0-6.44-1.54,13.33,13.33,0,0,0-9.49,3.88,13.08,13.08,0,0,0-2.81,4.24,13.67,13.67,0,0,0-1,5.25v.13a13.33,13.33,0,0,0,1,5.25,13.63,13.63,0,0,0,2.88,4.27,13.15,13.15,0,0,0,4.31,2.88,14,14,0,0,0,5.43,1,13.32,13.32,0,0,0,6.36-1.47,21.2,21.2,0,0,0,5-3.67l3.52,3.07a24.36,24.36,0,0,1-6.36,4.81A18.74,18.74,0,0,1,672.63,367.61Z"/><path class="cls-2" d="M697.08,319h6.33v5.68h-6.33Zm.36,13.24H703v34.54h-5.54Z"/><path class="cls-2" d="M732.81,367.61a20.32,20.32,0,0,1-7.69-1.43A19.49,19.49,0,0,1,719,362.3a17.37,17.37,0,0,1-4-5.68,16.81,16.81,0,0,1-1.44-6.91v-.14a17.1,17.1,0,0,1,1.44-6.95,17.61,17.61,0,0,1,4-5.74,19.07,19.07,0,0,1,6.15-3.91,21.66,21.66,0,0,1,15.53,0,19.57,19.57,0,0,1,6.14,3.87,17.47,17.47,0,0,1,4,5.68,16.86,16.86,0,0,1,1.44,6.92v.13a16.77,16.77,0,0,1-1.47,6.95,18.35,18.35,0,0,1-4.07,5.75,19,19,0,0,1-6.18,3.91A20.92,20.92,0,0,1,732.81,367.61ZM733,363a13.84,13.84,0,0,0,5.53-1.07,13.43,13.43,0,0,0,4.32-2.87,13,13,0,0,0,2.8-4.21,13.2,13.2,0,0,0,1-5.14v-.14a13.15,13.15,0,0,0-4-9.52,14.09,14.09,0,0,0-4.38-2.91,13.9,13.9,0,0,0-5.47-1.07,14.05,14.05,0,0,0-5.53,1.07,12.87,12.87,0,0,0-7,7.12,13.47,13.47,0,0,0-1,5.18v.13a13.26,13.26,0,0,0,3.92,9.49,13.9,13.9,0,0,0,4.35,2.87A13.72,13.72,0,0,0,733,363Z"/><path class="cls-2" d="M774.59,367.48a26.94,26.94,0,0,1-15.39-5.08l2.81-3.67A25.35,25.35,0,0,0,768.3,362a19.86,19.86,0,0,0,6.58,1.14,9.6,9.6,0,0,0,5.53-1.47,4.61,4.61,0,0,0,2.16-4v-.14a3.41,3.41,0,0,0-.75-2.2,6.89,6.89,0,0,0-2.05-1.64,16.61,16.61,0,0,0-3-1.23c-1.12-.36-2.29-.69-3.49-1-1.43-.4-2.88-.83-4.34-1.3a18.41,18.41,0,0,1-4-1.77,9.46,9.46,0,0,1-2.88-2.67,6.89,6.89,0,0,1-1.11-4v-.14a8.83,8.83,0,0,1,.93-4,9.31,9.31,0,0,1,2.63-3.14,12.08,12.08,0,0,1,4-2,17.38,17.38,0,0,1,5.06-.71,24.66,24.66,0,0,1,7,1,27.44,27.44,0,0,1,6.4,2.77l-2.52,3.88a25.44,25.44,0,0,0-5.43-2.44,18.36,18.36,0,0,0-5.57-.9,8.72,8.72,0,0,0-5.25,1.43,4.32,4.32,0,0,0-1.94,3.58v.13a3.09,3.09,0,0,0,.79,2.11,7,7,0,0,0,2.12,1.57,21.24,21.24,0,0,0,3.06,1.2c1.15.36,2.35.71,3.59,1.07,1.44.4,2.87.85,4.28,1.34a17,17,0,0,1,3.85,1.87,9.52,9.52,0,0,1,2.77,2.74,7.12,7.12,0,0,1,1,3.94v.13a9,9,0,0,1-1,4.38,10.14,10.14,0,0,1-2.81,3.24,12.68,12.68,0,0,1-4.17,2A18.44,18.44,0,0,1,774.59,367.48Z"/><path class="cls-2" d="M821.11,320h5.68v46.77h-5.68Z"/><path class="cls-2" d="M840.59,332.27h5.54v6A17,17,0,0,1,851,333.5a14.12,14.12,0,0,1,7.84-2,16.7,16.7,0,0,1,6,1,12.58,12.58,0,0,1,4.46,2.84,12.37,12.37,0,0,1,2.8,4.38,15.51,15.51,0,0,1,1,5.61v21.45h-5.53V346.68a10.63,10.63,0,0,0-2.66-7.61c-1.78-1.86-4.32-2.8-7.63-2.8a12.56,12.56,0,0,0-4.42.77,10.56,10.56,0,0,0-3.56,2.2,9.93,9.93,0,0,0-2.33,3.44,11.24,11.24,0,0,0-.83,4.4v19.73h-5.54Z"/><path class="cls-2" d="M884.88,332.27h5.54v5.81a27.66,27.66,0,0,1,2.05-2.47A12.15,12.15,0,0,1,895,333.5a12.89,12.89,0,0,1,3.24-1.43,14.55,14.55,0,0,1,4.17-.54,12.65,12.65,0,0,1,11.94,6.88,22.51,22.51,0,0,1,2.26-2.67,14.32,14.32,0,0,1,2.84-2.21,14.06,14.06,0,0,1,3.56-1.46,16.78,16.78,0,0,1,4.42-.54c4.32,0,7.69,1.24,10.14,3.71s3.67,5.87,3.67,10.19v21.38h-5.54V346.68c0-3.34-.85-5.9-2.55-7.7a9.28,9.28,0,0,0-7.09-2.71,11.11,11.11,0,0,0-4,.71,9.13,9.13,0,0,0-3.27,2.06,9.87,9.87,0,0,0-2.23,3.37,11.76,11.76,0,0,0-.83,4.53v19.87h-5.46V346.54q0-4.86-2.55-7.56a9.2,9.2,0,0,0-7-2.71,10.17,10.17,0,0,0-4.1.81,9.64,9.64,0,0,0-3.27,2.26,10.67,10.67,0,0,0-2.2,3.43,11.6,11.6,0,0,0-.79,4.37v19.67h-5.54Z"/><path class="cls-2" d="M970.23,367.61a20.32,20.32,0,0,1-7.69-1.43,19.49,19.49,0,0,1-6.11-3.88,17.37,17.37,0,0,1-4-5.68,16.81,16.81,0,0,1-1.44-6.91v-.14a17.1,17.1,0,0,1,1.44-6.95,17.61,17.61,0,0,1,4-5.74,19.07,19.07,0,0,1,6.15-3.91,21.66,21.66,0,0,1,15.53,0,19.57,19.57,0,0,1,6.14,3.87,17.47,17.47,0,0,1,4,5.68,16.86,16.86,0,0,1,1.44,6.92v.13a16.62,16.62,0,0,1-1.48,6.95,18.16,18.16,0,0,1-4.06,5.75,19.11,19.11,0,0,1-6.18,3.91A20.92,20.92,0,0,1,970.23,367.61Zm.15-4.61a13.88,13.88,0,0,0,5.53-1.07,13.43,13.43,0,0,0,4.32-2.87,13.19,13.19,0,0,0,3.81-9.35v-.14a13.15,13.15,0,0,0-4-9.52,14.09,14.09,0,0,0-4.38-2.91,14.67,14.67,0,0,0-11,0,12.87,12.87,0,0,0-7.05,7.12,13.47,13.47,0,0,0-1,5.18v.13a13.26,13.26,0,0,0,3.92,9.49,13.91,13.91,0,0,0,9.82,3.94Z"/><path class="cls-2" d="M1019.49,367.55a17.7,17.7,0,0,1-4.75-.6,16.8,16.8,0,0,1-3.88-1.61,16.48,16.48,0,0,1-3.13-2.34,20.82,20.82,0,0,1-2.48-2.8v6.61h-5.54V318h5.54v21.18a29.17,29.17,0,0,1,2.55-2.94,16.3,16.3,0,0,1,7-4.1,16.11,16.11,0,0,1,4.71-.64,18.37,18.37,0,0,1,6.5,1.2,17.24,17.24,0,0,1,9.75,9.12,18.23,18.23,0,0,1,1.51,7.59v.13a18.21,18.21,0,0,1-1.51,7.55,17.19,17.19,0,0,1-9.67,9.19A18.24,18.24,0,0,1,1019.49,367.55Zm-1-4.61a14.19,14.19,0,0,0,5.07-.91,12.1,12.1,0,0,0,4.17-2.6,12.48,12.48,0,0,0,2.8-4.18,14.24,14.24,0,0,0,1-5.61v-.13a14.08,14.08,0,0,0-1-5.55,12.38,12.38,0,0,0-7-6.88,13.46,13.46,0,0,0-5-.94,13.21,13.21,0,0,0-5,1,14,14,0,0,0-4.31,2.74,13,13,0,0,0-3,4.21,12.7,12.7,0,0,0-1.12,5.38v.13a13.07,13.07,0,0,0,1.12,5.48,12.63,12.63,0,0,0,3,4.21,14.34,14.34,0,0,0,4.31,2.71A13.4,13.4,0,0,0,1018.48,362.94Z"/><path class="cls-2" d="M1047.6,319h6.33v5.68h-6.33Zm.36,13.24h5.54v34.54H1048Z"/><path class="cls-2" d="M1066.87,318h5.53v48.78h-5.53Z"/><path class="cls-2" d="M1085.42,319h6.33v5.68h-6.33Zm.36,13.24h5.53v34.54h-5.53Z"/><path class="cls-2" d="M1115.26,367.55a20.08,20.08,0,0,1-5.11-.67,14,14,0,0,1-4.46-2,10.9,10.9,0,0,1-3.12-3.37,9,9,0,0,1-1.19-4.68v-.13a10.08,10.08,0,0,1,1.15-4.92,9.84,9.84,0,0,1,3.27-3.5,16.11,16.11,0,0,1,5-2.14,26.37,26.37,0,0,1,6.44-.74,42.8,42.8,0,0,1,6.22.4,50.88,50.88,0,0,1,5.14,1.07v-1.06c0-3-1-5.37-2.88-6.94s-4.62-2.35-8.12-2.35a25.17,25.17,0,0,0-6,.66,33,33,0,0,0-5.29,1.81l-1.65-4.24a42.11,42.11,0,0,1,6.25-2.17,29.43,29.43,0,0,1,7.27-.81q7.9,0,12,3.81,3.88,3.61,3.89,10.16v21.11h-5.47v-5.14a17.39,17.39,0,0,1-5.21,4.11A17,17,0,0,1,1115.26,367.55Zm1.12-4.21a16.43,16.43,0,0,0,4.8-.67,12.63,12.63,0,0,0,3.9-1.89,9.36,9.36,0,0,0,2.66-2.93,7.49,7.49,0,0,0,1-3.76V350.9c-1.38-.35-3-.68-4.73-1a35.63,35.63,0,0,0-6.09-.46q-5.16,0-8,1.89a5.79,5.79,0,0,0-2.83,5v.14a5.66,5.66,0,0,0,.75,2.89,6.4,6.4,0,0,0,2,2.16,10,10,0,0,0,3,1.33A13.23,13.23,0,0,0,1116.38,363.34Z"/><path class="cls-2" d="M1145.81,332.27h5.54v9a18.15,18.15,0,0,1,2.52-4,16.16,16.16,0,0,1,3.45-3.1,14.93,14.93,0,0,1,4.24-2,16.23,16.23,0,0,1,5-.61v5.55h-.43a16.18,16.18,0,0,0-5.71,1,13,13,0,0,0-4.71,3,14.09,14.09,0,0,0-3.17,5,18.8,18.8,0,0,0-1.15,6.85v13.76h-5.54Z"/><path class="cls-2" d="M1175.08,319h6.33v5.68h-6.33Zm.36,13.24H1181v34.54h-5.53Z"/><path class="cls-2" d="M1210.81,367.61a20.32,20.32,0,0,1-7.69-1.43,19.49,19.49,0,0,1-6.11-3.88,17.37,17.37,0,0,1-4-5.68,16.81,16.81,0,0,1-1.44-6.91v-.14a17.1,17.1,0,0,1,1.44-6.95,17.61,17.61,0,0,1,4-5.74,19.07,19.07,0,0,1,6.15-3.91,21.66,21.66,0,0,1,15.53,0,19.57,19.57,0,0,1,6.14,3.87,17.47,17.47,0,0,1,4,5.68,16.86,16.86,0,0,1,1.44,6.92v.13a16.77,16.77,0,0,1-1.47,6.95,18.35,18.35,0,0,1-4.07,5.75,19,19,0,0,1-6.18,3.91A20.92,20.92,0,0,1,1210.81,367.61ZM1211,363a13.84,13.84,0,0,0,5.53-1.07,13.43,13.43,0,0,0,4.32-2.87,13,13,0,0,0,2.8-4.21,13.2,13.2,0,0,0,1-5.14v-.14a13.15,13.15,0,0,0-4-9.52,14.09,14.09,0,0,0-4.38-2.91,13.9,13.9,0,0,0-5.47-1.07,14.05,14.05,0,0,0-5.53,1.07,12.87,12.87,0,0,0-7,7.12,13.47,13.47,0,0,0-1,5.18v.13a13.26,13.26,0,0,0,3.92,9.49,13.9,13.9,0,0,0,4.35,2.87A13.72,13.72,0,0,0,1211,363Z"/><path class="cls-2" d="M1252.59,367.48a26.94,26.94,0,0,1-15.39-5.08l2.81-3.67a25.35,25.35,0,0,0,6.29,3.27,19.86,19.86,0,0,0,6.58,1.14,9.62,9.62,0,0,0,5.53-1.47,4.61,4.61,0,0,0,2.16-4v-.14a3.36,3.36,0,0,0-.76-2.2,6.71,6.71,0,0,0-2-1.64,16.61,16.61,0,0,0-3-1.23c-1.13-.36-2.29-.69-3.49-1-1.43-.4-2.88-.83-4.35-1.3a18.55,18.55,0,0,1-4-1.77,9.34,9.34,0,0,1-2.88-2.67,6.89,6.89,0,0,1-1.11-4v-.14a8.83,8.83,0,0,1,.93-4,9.31,9.31,0,0,1,2.63-3.14,12.12,12.12,0,0,1,4-2,17.5,17.5,0,0,1,5.07-.71,24.71,24.71,0,0,1,7,1,27.44,27.44,0,0,1,6.4,2.77l-2.52,3.88a25.44,25.44,0,0,0-5.43-2.44,18.36,18.36,0,0,0-5.57-.9,8.69,8.69,0,0,0-5.25,1.43,4.32,4.32,0,0,0-1.94,3.58v.13a3.09,3.09,0,0,0,.79,2.11,7,7,0,0,0,2.12,1.57,21.24,21.24,0,0,0,3.06,1.2c1.15.36,2.35.71,3.59,1.07,1.44.4,2.87.85,4.28,1.34a17.19,17.19,0,0,1,3.85,1.87,9.52,9.52,0,0,1,2.77,2.74,7.12,7.12,0,0,1,1,3.94v.13a9,9,0,0,1-1,4.38,10.14,10.14,0,0,1-2.81,3.24,12.68,12.68,0,0,1-4.17,2A18.49,18.49,0,0,1,1252.59,367.48Z"/><path class="cls-2" d="M1296.16,344h20v5.41h-20Z"/><path class="cls-2" d="M1372.52,367.61a26.47,26.47,0,0,1-10.07-1.87,24.82,24.82,0,0,1-8-5.11,23.56,23.56,0,0,1-7.19-17.07v-.14a23.34,23.34,0,0,1,1.91-9.35,24.11,24.11,0,0,1,5.28-7.72,24.79,24.79,0,0,1,8-5.21,26.82,26.82,0,0,1,10.21-1.91,32.53,32.53,0,0,1,6.22.54,28.13,28.13,0,0,1,5.15,1.5,24.07,24.07,0,0,1,4.38,2.34,38.38,38.38,0,0,1,3.88,3l-3.88,3.88a31.85,31.85,0,0,0-6.94-4.61,21.9,21.9,0,0,0-16.61-.34,18.91,18.91,0,0,0-6.18,4.08,18.72,18.72,0,0,0-4.1,6.11,19.28,19.28,0,0,0-1.47,7.52v.13a19.45,19.45,0,0,0,1.47,7.59,18.61,18.61,0,0,0,4.1,6.11,19.31,19.31,0,0,0,6.18,4.11,19.73,19.73,0,0,0,7.73,1.51,20.69,20.69,0,0,0,8.92-1.77,30.9,30.9,0,0,0,7.33-5l3.74,3.41a35.56,35.56,0,0,1-4.06,3.37,25.83,25.83,0,0,1-4.57,2.57,26.85,26.85,0,0,1-5.25,1.67A29.87,29.87,0,0,1,1372.52,367.61Z"/><path class="cls-2" d="M1402.57,320h18.84a27.08,27.08,0,0,1,7.73,1,18.11,18.11,0,0,1,6,2.94,13,13,0,0,1,3.81,4.65,14,14,0,0,1,1.33,6.21V335a13.49,13.49,0,0,1-1.58,6.65,14.5,14.5,0,0,1-4.28,4.78,19.36,19.36,0,0,1-6.29,2.91,29.46,29.46,0,0,1-7.62,1h-12.23v16.5h-5.68Zm18.16,25.52a20.53,20.53,0,0,0,5.66-.73,13.59,13.59,0,0,0,4.39-2.12,9.46,9.46,0,0,0,2.82-3.25,9,9,0,0,0,1-4.22v-.13a8.67,8.67,0,0,0-3.71-7.61q-3.72-2.58-9.84-2.58h-12.77v20.64Z"/><path class="cls-2" d="M1451.11,320h5.68v46.77h-5.68Z"/><path class="cls-2" d="M1507.77,367.61a23.81,23.81,0,0,1-10-2.07,29.77,29.77,0,0,1-8-5.28l3.74-3.81a28.4,28.4,0,0,0,6.87,4.72,17.09,17.09,0,0,0,7.44,1.7,15.28,15.28,0,0,0,4.92-.77,11.05,11.05,0,0,0,3.85-2.18,10.36,10.36,0,0,0,2.48-3.32,9.54,9.54,0,0,0,.9-4.12v-.14a8.57,8.57,0,0,0-.94-4,9.63,9.63,0,0,0-2.58-3.12,12.11,12.11,0,0,0-4-2,17.08,17.08,0,0,0-5-.7,20.14,20.14,0,0,0-5.79.77,28.18,28.18,0,0,0-4.78,1.9l-3.81-2.34,1.44-22.78h28.93v4.88h-24l-1.08,14.93a30.49,30.49,0,0,1,4.49-1.53,22.46,22.46,0,0,1,5.43-.58,23.06,23.06,0,0,1,6.83,1,16.41,16.41,0,0,1,5.52,2.84,12.93,12.93,0,0,1,5,10.52v.13a14.84,14.84,0,0,1-1.31,6.26,14.39,14.39,0,0,1-3.67,4.89,16.64,16.64,0,0,1-5.66,3.15A22.75,22.75,0,0,1,1507.77,367.61Z"/><path class="cls-2" d="M1551.77,367.61a23.81,23.81,0,0,1-10-2.07,29.93,29.93,0,0,1-8-5.28l3.74-3.81a28.79,28.79,0,0,0,6.87,4.72,17.09,17.09,0,0,0,7.44,1.7,15.35,15.35,0,0,0,4.93-.77,10.92,10.92,0,0,0,3.84-2.18,10.08,10.08,0,0,0,2.48-3.32,9.54,9.54,0,0,0,.9-4.12v-.14a8.68,8.68,0,0,0-.93-4,9.66,9.66,0,0,0-2.59-3.12,12,12,0,0,0-4-2,17.2,17.2,0,0,0-5-.7,20.24,20.24,0,0,0-5.79.77,28.51,28.51,0,0,0-4.78,1.9l-3.81-2.34,1.44-22.78h28.93v4.88h-24l-1.08,14.93a31,31,0,0,1,4.5-1.53,22.43,22.43,0,0,1,5.42-.58,23.12,23.12,0,0,1,6.84,1,16.36,16.36,0,0,1,5.51,2.84,12.93,12.93,0,0,1,5,10.52v.13a14.69,14.69,0,0,1-1.31,6.26,14.39,14.39,0,0,1-3.67,4.89,16.54,16.54,0,0,1-5.66,3.15A22.66,22.66,0,0,1,1551.77,367.61Z"/><path class="cls-2" d="M1596.35,367.61a24.8,24.8,0,0,1-11-2.27,23,23,0,0,1-7.77-6l4.1-3.41a22.09,22.09,0,0,0,6.51,5.15,18,18,0,0,0,8.23,1.8,14.11,14.11,0,0,0,4.32-.64,10.16,10.16,0,0,0,3.48-1.84,8.8,8.8,0,0,0,2.34-2.88,8,8,0,0,0,.86-3.74v-.14a7.15,7.15,0,0,0-1-3.88,8.62,8.62,0,0,0-2.91-2.81,15,15,0,0,0-4.46-1.74,25.11,25.11,0,0,0-5.68-.61h-3.24l-1.15-3.14,15.89-16.67h-24.59V320h32.08v3.87l-15.75,16.31a31.67,31.67,0,0,1,6.29,1.13,17.62,17.62,0,0,1,5.26,2.48,12.08,12.08,0,0,1,3.63,4,11.08,11.08,0,0,1,1.35,5.58v.13a12.53,12.53,0,0,1-1.31,5.75,13.5,13.5,0,0,1-3.56,4.44,16.69,16.69,0,0,1-5.3,2.88A20.39,20.39,0,0,1,1596.35,367.61Z"/><path class="cls-2" d="M1639.85,367.61a23.88,23.88,0,0,1-10-2.07,29.87,29.87,0,0,1-8-5.28l3.73-3.81a28.79,28.79,0,0,0,6.87,4.72,17.09,17.09,0,0,0,7.44,1.7,15.3,15.3,0,0,0,4.93-.77,11.05,11.05,0,0,0,3.85-2.18,10.36,10.36,0,0,0,2.48-3.32,9.68,9.68,0,0,0,.89-4.12v-.14a8.68,8.68,0,0,0-.93-4,9.66,9.66,0,0,0-2.59-3.12,12,12,0,0,0-4-2,17.2,17.2,0,0,0-5-.7,20.12,20.12,0,0,0-5.78.77,28.29,28.29,0,0,0-4.79,1.9l-3.81-2.34,1.44-22.78h28.93v4.88h-24l-1.08,14.93a31,31,0,0,1,4.5-1.53,22.46,22.46,0,0,1,5.43-.58,23.1,23.1,0,0,1,6.83,1,16.27,16.27,0,0,1,5.51,2.84,12.93,12.93,0,0,1,5,10.52v.13a14.69,14.69,0,0,1-1.31,6.26,14.26,14.26,0,0,1-3.67,4.89,16.45,16.45,0,0,1-5.66,3.15A22.66,22.66,0,0,1,1639.85,367.61Z"/><path class="cls-3" d="M114,3.86,7.73,60.91a9.59,9.59,0,0,0-4.89,8.5V440c6.3-2.32,13.25-4.52,21.13-6.65l.25-.06c8.42-2.2,17.31-4.19,26.38-5.93,16.79-3.18,34.68-5.75,53.25-7.7,6.87-.77,14.53-1.47,23.07-2.13V12.36C126.92,5.27,119.92.68,114,3.86Z"/><path class="cls-4" d="M259.28,105.34,153,162.39a9.56,9.56,0,0,0-4.92,8.47V416.07l9-.5c17-.75,34.39-1.15,53.12-1.21h.22c19.16.13,36.54.57,53.16,1.4,2.92.16,5.75.31,8.56.49V113.81C272.23,106.74,265.21,102.13,259.28,105.34Z"/><path class="cls-1" d="M404.59,105.34l-106.24,57a9.56,9.56,0,0,0-4.92,8.47V417.72c8.32.68,16.11,1.42,23.64,2.28,18.46,2,36.35,4.65,53,7.92,9.11,1.8,18,3.87,26.5,6.15l.28.09c7.93,2.24,14.62,4.45,20.66,6.8V113.81C417.52,106.74,410.51,102.13,404.59,105.34Z"/><rect class="cls-5" x="31.54" y="86.86" width="26.93" height="15.71" rx="0.76"/><rect class="cls-5" x="71.27" y="86.86" width="26.93" height="15.71" rx="0.76"/><rect class="cls-5" x="31.54" y="114.43" width="26.93" height="15.71" rx="0.76"/><rect class="cls-5" x="71.27" y="114.43" width="26.93" height="15.71" rx="0.76"/><rect class="cls-5" x="31.54" y="173.73" width="26.93" height="15.71" rx="0.76"/><rect class="cls-5" x="71.27" y="173.73" width="26.93" height="15.71" rx="0.76"/><rect class="cls-5" x="31.54" y="201.3" width="26.93" height="15.71" rx="0.76"/><rect class="cls-5" x="71.27" y="201.3" width="26.93" height="15.71" rx="0.76"/><rect class="cls-5" x="31.54" y="260.59" width="26.93" height="15.71" rx="0.76"/><rect class="cls-5" x="71.27" y="260.59" width="26.93" height="15.71" rx="0.76"/><rect class="cls-5" x="31.54" y="288.16" width="26.93" height="15.71" rx="0.76"/><rect class="cls-5" x="71.27" y="288.16" width="26.93" height="15.71" rx="0.76"/><rect class="cls-5" x="31.54" y="347.45" width="26.93" height="15.71" rx="0.76"/><rect class="cls-5" x="71.27" y="347.45" width="26.93" height="15.71" rx="0.76"/><rect class="cls-5" x="31.54" y="375.02" width="26.93" height="15.71" rx="0.76"/><rect class="cls-5" x="71.27" y="375.02" width="26.93" height="15.71" rx="0.76"/><rect class="cls-5" x="176.85" y="188.35" width="26.93" height="15.71" rx="0.76"/><rect class="cls-5" x="216.57" y="188.35" width="26.93" height="15.71" rx="0.76"/><rect class="cls-5" x="176.85" y="215.92" width="26.93" height="15.71" rx="0.76"/><rect class="cls-5" x="216.57" y="215.92" width="26.93" height="15.71" rx="0.76"/><rect class="cls-5" x="176.85" y="267.9" width="26.93" height="15.71" rx="0.76"/><rect class="cls-5" x="216.57" y="267.9" width="26.93" height="15.71" rx="0.76"/><rect class="cls-5" x="176.85" y="295.47" width="26.93" height="15.71" rx="0.76"/><rect class="cls-5" x="216.57" y="295.47" width="26.93" height="15.71" rx="0.76"/><rect class="cls-5" x="176.85" y="347.45" width="26.93" height="15.71" rx="0.76"/><rect class="cls-5" x="216.57" y="347.45" width="26.93" height="15.71" rx="0.76"/><rect class="cls-5" x="176.85" y="375.02" width="26.93" height="15.71" rx="0.76"/><rect class="cls-5" x="216.57" y="375.02" width="26.93" height="15.71" rx="0.76"/><rect class="cls-5" x="322.15" y="188.35" width="26.93" height="15.71" rx="0.76"/><rect class="cls-5" x="361.88" y="188.35" width="26.93" height="15.71" rx="0.76"/><rect class="cls-5" x="322.15" y="215.92" width="26.93" height="15.71" rx="0.76"/><rect class="cls-5" x="361.88" y="215.92" width="26.93" height="15.71" rx="0.76"/><rect class="cls-5" x="322.15" y="267.9" width="26.93" height="15.71" rx="0.76"/><rect class="cls-5" x="361.88" y="267.9" width="26.93" height="15.71" rx="0.76"/><rect class="cls-5" x="322.15" y="295.47" width="26.93" height="15.71" rx="0.76"/><rect class="cls-5" x="361.88" y="295.47" width="26.93" height="15.71" rx="0.76"/><rect class="cls-5" x="322.15" y="347.45" width="26.93" height="15.71" rx="0.76"/><rect class="cls-5" x="361.88" y="347.45" width="26.93" height="15.71" rx="0.76"/><rect class="cls-5" x="322.15" y="375.02" width="26.93" height="15.71" rx="0.76"/><rect class="cls-5" x="361.88" y="375.02" width="26.93" height="15.71" rx="0.76"/><path class="cls-1" d="M6.56,453.25a204.36,204.36,0,0,1,23.79-7.8c8.2-2.13,16.54-4,24.95-5.61,16.85-3.18,34-5.58,51.16-7.39,8.59-1,17.22-1.7,25.87-2.33l13-.89,13-.72c17.34-.77,34.71-1.13,52.07-1.18,17.36.1,34.73.5,52.06,1.35s34.63,2.16,51.82,4.11,34.28,4.35,51.1,7.63c8.39,1.67,16.71,3.59,24.87,5.79a184.45,184.45,0,0,1,23.58,8.16c.5.22.66.69.36,1.05a1.31,1.31,0,0,1-1.32.3h0C397,451,380.38,448,363.58,445.8s-33.74-3.88-50.74-5.17-34.08-2.22-51.18-2.69-34.2-.94-51.32-.88-34.24.21-51.33.76-34.17,1.43-51.2,2.54c-4.26.26-8.51.61-12.75,1s-8.49.74-12.73,1.13-8.47.81-12.69,1.29-8.43,1-12.64,1.54a352,352,0,0,0-49.5,9.33h0a1.22,1.22,0,0,1-1.38-.44C5.9,453.83,6.11,453.43,6.56,453.25Z"/></svg>